<mxfile host="app.diagrams.net" agent="Mozilla/5.0 (Windows NT 10.0; Win64; x64) AppleWebKit/537.36 (KHTML, like Gecko) Chrome/127.0.0.0 Safari/537.36" version="24.7.6">
  <diagram id="C5RBs43oDa-KdzZeNtuy" name="Page-1">
    <mxGraphModel grid="1" page="1" gridSize="10" guides="1" tooltips="1" connect="1" arrows="1" fold="1" pageScale="1" pageWidth="827" pageHeight="1169" math="0" shadow="0">
      <root>
        <mxCell id="WIyWlLk6GJQsqaUBKTNV-0" />
        <mxCell id="WIyWlLk6GJQsqaUBKTNV-1" parent="WIyWlLk6GJQsqaUBKTNV-0" />
        <mxCell id="MpU0YCQf8KXyQp7wxGWL-0" value="&amp;nbsp;InÃ­cio" style="rounded=1;whiteSpace=wrap;html=1;" vertex="1" parent="WIyWlLk6GJQsqaUBKTNV-1">
          <mxGeometry x="-70" y="40" width="130" height="40" as="geometry" />
        </mxCell>
        <mxCell id="MpU0YCQf8KXyQp7wxGWL-2" style="edgeStyle=orthogonalEdgeStyle;rounded=0;orthogonalLoop=1;jettySize=auto;html=1;entryX=0;entryY=0.5;entryDx=0;entryDy=0;" edge="1" parent="WIyWlLk6GJQsqaUBKTNV-1" source="MpU0YCQf8KXyQp7wxGWL-1" target="MpU0YCQf8KXyQp7wxGWL-0">
          <mxGeometry relative="1" as="geometry" />
        </mxCell>
        <mxCell id="MpU0YCQf8KXyQp7wxGWL-1" value="inteiro&lt;br&gt;idadeColega1, idadeColega2, idadeColega3, idadeColega4, idadeColega5, minhaIdade, somaDasIdades = 0" style="rounded=0;whiteSpace=wrap;html=1;" vertex="1" parent="WIyWlLk6GJQsqaUBKTNV-1">
          <mxGeometry x="-310" y="15" width="170" height="90" as="geometry" />
        </mxCell>
        <mxCell id="MpU0YCQf8KXyQp7wxGWL-3" value="&quot;Qual a sua idade?&quot;" style="shape=display;whiteSpace=wrap;html=1;" vertex="1" parent="WIyWlLk6GJQsqaUBKTNV-1">
          <mxGeometry x="-70" y="140" width="130" height="40" as="geometry" />
        </mxCell>
        <mxCell id="MpU0YCQf8KXyQp7wxGWL-4" value="minhaIdade" style="html=1;strokeWidth=2;shape=manualInput;whiteSpace=wrap;rounded=1;size=26;arcSize=0;" vertex="1" parent="WIyWlLk6GJQsqaUBKTNV-1">
          <mxGeometry x="-70" y="240" width="130" height="60" as="geometry" />
        </mxCell>
        <mxCell id="MpU0YCQf8KXyQp7wxGWL-9" style="edgeStyle=orthogonalEdgeStyle;rounded=0;orthogonalLoop=1;jettySize=auto;html=1;exitX=0;exitY=0;exitDx=71.25;exitDy=40;exitPerimeter=0;entryX=0.543;entryY=0.203;entryDx=0;entryDy=0;entryPerimeter=0;" edge="1" parent="WIyWlLk6GJQsqaUBKTNV-1" source="MpU0YCQf8KXyQp7wxGWL-3" target="MpU0YCQf8KXyQp7wxGWL-4">
          <mxGeometry relative="1" as="geometry" />
        </mxCell>
        <mxCell id="MpU0YCQf8KXyQp7wxGWL-10" style="edgeStyle=orthogonalEdgeStyle;rounded=0;orthogonalLoop=1;jettySize=auto;html=1;exitX=0.5;exitY=1;exitDx=0;exitDy=0;entryX=0.5;entryY=-0.015;entryDx=0;entryDy=0;entryPerimeter=0;" edge="1" parent="WIyWlLk6GJQsqaUBKTNV-1">
          <mxGeometry relative="1" as="geometry">
            <mxPoint y="80" as="sourcePoint" />
            <mxPoint y="139.39999999999998" as="targetPoint" />
          </mxGeometry>
        </mxCell>
        <mxCell id="MpU0YCQf8KXyQp7wxGWL-11" value="&quot;Qual a idade do colega 1?&quot;" style="shape=display;whiteSpace=wrap;html=1;" vertex="1" parent="WIyWlLk6GJQsqaUBKTNV-1">
          <mxGeometry x="-76" y="350" width="154" height="49" as="geometry" />
        </mxCell>
        <mxCell id="MpU0YCQf8KXyQp7wxGWL-12" value="idadeColega1" style="html=1;strokeWidth=2;shape=manualInput;whiteSpace=wrap;rounded=1;size=26;arcSize=0;" vertex="1" parent="WIyWlLk6GJQsqaUBKTNV-1">
          <mxGeometry x="-64" y="459" width="130" height="60" as="geometry" />
        </mxCell>
        <mxCell id="MpU0YCQf8KXyQp7wxGWL-13" style="edgeStyle=orthogonalEdgeStyle;rounded=0;orthogonalLoop=1;jettySize=auto;html=1;exitX=0;exitY=0;exitDx=71.25;exitDy=40;exitPerimeter=0;entryX=0.543;entryY=0.203;entryDx=0;entryDy=0;entryPerimeter=0;" edge="1" parent="WIyWlLk6GJQsqaUBKTNV-1">
          <mxGeometry relative="1" as="geometry">
            <mxPoint x="1.25" y="399" as="sourcePoint" />
            <mxPoint x="0.5899999999999181" y="471.18000000000006" as="targetPoint" />
          </mxGeometry>
        </mxCell>
        <mxCell id="MpU0YCQf8KXyQp7wxGWL-14" style="edgeStyle=orthogonalEdgeStyle;rounded=0;orthogonalLoop=1;jettySize=auto;html=1;exitX=0.5;exitY=1;exitDx=0;exitDy=0;entryX=0.5;entryY=-0.015;entryDx=0;entryDy=0;entryPerimeter=0;" edge="1" parent="WIyWlLk6GJQsqaUBKTNV-1" target="MpU0YCQf8KXyQp7wxGWL-11">
          <mxGeometry relative="1" as="geometry">
            <mxPoint x="1" y="299" as="sourcePoint" />
          </mxGeometry>
        </mxCell>
        <mxCell id="MpU0YCQf8KXyQp7wxGWL-16" value="idadeColega2" style="html=1;strokeWidth=2;shape=manualInput;whiteSpace=wrap;rounded=1;size=26;arcSize=0;" vertex="1" parent="WIyWlLk6GJQsqaUBKTNV-1">
          <mxGeometry x="-64" y="679" width="130" height="60" as="geometry" />
        </mxCell>
        <mxCell id="MpU0YCQf8KXyQp7wxGWL-17" style="edgeStyle=orthogonalEdgeStyle;rounded=0;orthogonalLoop=1;jettySize=auto;html=1;exitX=0;exitY=0;exitDx=71.25;exitDy=40;exitPerimeter=0;entryX=0.543;entryY=0.203;entryDx=0;entryDy=0;entryPerimeter=0;" edge="1" parent="WIyWlLk6GJQsqaUBKTNV-1">
          <mxGeometry relative="1" as="geometry">
            <mxPoint x="0.25" y="620" as="sourcePoint" />
            <mxPoint x="-0.41000000000008185" y="692.1800000000001" as="targetPoint" />
          </mxGeometry>
        </mxCell>
        <mxCell id="MpU0YCQf8KXyQp7wxGWL-18" style="edgeStyle=orthogonalEdgeStyle;rounded=0;orthogonalLoop=1;jettySize=auto;html=1;exitX=0.5;exitY=1;exitDx=0;exitDy=0;entryX=0.5;entryY=-0.015;entryDx=0;entryDy=0;entryPerimeter=0;" edge="1" parent="WIyWlLk6GJQsqaUBKTNV-1">
          <mxGeometry relative="1" as="geometry">
            <mxPoint x="1" y="519" as="sourcePoint" />
            <mxPoint x="1" y="578.4000000000001" as="targetPoint" />
          </mxGeometry>
        </mxCell>
        <mxCell id="lA4oFmGLLZb_DYhbLBO6-1" value="&quot;Qual a idade do colega 2?&quot;" style="shape=display;whiteSpace=wrap;html=1;" vertex="1" parent="WIyWlLk6GJQsqaUBKTNV-1">
          <mxGeometry x="-87" y="579" width="154" height="49" as="geometry" />
        </mxCell>
        <mxCell id="GoQJRWWMJ3RlQegqBFur-0" value="idadeColega3" style="html=1;strokeWidth=2;shape=manualInput;whiteSpace=wrap;rounded=1;size=26;arcSize=0;" vertex="1" parent="WIyWlLk6GJQsqaUBKTNV-1">
          <mxGeometry x="-65" y="899" width="130" height="60" as="geometry" />
        </mxCell>
        <mxCell id="GoQJRWWMJ3RlQegqBFur-1" style="edgeStyle=orthogonalEdgeStyle;rounded=0;orthogonalLoop=1;jettySize=auto;html=1;exitX=0;exitY=0;exitDx=71.25;exitDy=40;exitPerimeter=0;entryX=0.543;entryY=0.203;entryDx=0;entryDy=0;entryPerimeter=0;" edge="1" parent="WIyWlLk6GJQsqaUBKTNV-1">
          <mxGeometry relative="1" as="geometry">
            <mxPoint x="-0.75" y="840" as="sourcePoint" />
            <mxPoint x="-1.4100000000000819" y="912.1800000000001" as="targetPoint" />
            <Array as="points">
              <mxPoint x="-1" y="877" />
            </Array>
          </mxGeometry>
        </mxCell>
        <mxCell id="GoQJRWWMJ3RlQegqBFur-2" style="edgeStyle=orthogonalEdgeStyle;rounded=0;orthogonalLoop=1;jettySize=auto;html=1;exitX=0.5;exitY=1;exitDx=0;exitDy=0;entryX=0.5;entryY=-0.015;entryDx=0;entryDy=0;entryPerimeter=0;" edge="1" parent="WIyWlLk6GJQsqaUBKTNV-1">
          <mxGeometry relative="1" as="geometry">
            <mxPoint y="739" as="sourcePoint" />
            <mxPoint y="798.4000000000001" as="targetPoint" />
          </mxGeometry>
        </mxCell>
        <mxCell id="GoQJRWWMJ3RlQegqBFur-3" value="&quot;Qual a idade do colega 3?&quot;" style="shape=display;whiteSpace=wrap;html=1;" vertex="1" parent="WIyWlLk6GJQsqaUBKTNV-1">
          <mxGeometry x="-88" y="799" width="154" height="49" as="geometry" />
        </mxCell>
        <mxCell id="GoQJRWWMJ3RlQegqBFur-4" value="idadeColega5" style="html=1;strokeWidth=2;shape=manualInput;whiteSpace=wrap;rounded=1;size=26;arcSize=0;" vertex="1" parent="WIyWlLk6GJQsqaUBKTNV-1">
          <mxGeometry x="-66" y="1118" width="130" height="60" as="geometry" />
        </mxCell>
        <mxCell id="GoQJRWWMJ3RlQegqBFur-5" style="edgeStyle=orthogonalEdgeStyle;rounded=0;orthogonalLoop=1;jettySize=auto;html=1;exitX=0;exitY=0;exitDx=71.25;exitDy=40;exitPerimeter=0;entryX=0.543;entryY=0.203;entryDx=0;entryDy=0;entryPerimeter=0;" edge="1" parent="WIyWlLk6GJQsqaUBKTNV-1">
          <mxGeometry relative="1" as="geometry">
            <mxPoint x="-1.75" y="1059" as="sourcePoint" />
            <mxPoint x="-2.410000000000082" y="1131.18" as="targetPoint" />
            <Array as="points">
              <mxPoint x="-2" y="1096" />
            </Array>
          </mxGeometry>
        </mxCell>
        <mxCell id="GoQJRWWMJ3RlQegqBFur-6" style="edgeStyle=orthogonalEdgeStyle;rounded=0;orthogonalLoop=1;jettySize=auto;html=1;exitX=0.5;exitY=1;exitDx=0;exitDy=0;entryX=0.5;entryY=-0.015;entryDx=0;entryDy=0;entryPerimeter=0;" edge="1" parent="WIyWlLk6GJQsqaUBKTNV-1">
          <mxGeometry relative="1" as="geometry">
            <mxPoint x="-1" y="958" as="sourcePoint" />
            <mxPoint x="-1" y="1017.4000000000001" as="targetPoint" />
          </mxGeometry>
        </mxCell>
        <mxCell id="GoQJRWWMJ3RlQegqBFur-7" value="&quot;Qual a idade do colega 4&lt;span style=&quot;background-color: initial;&quot;&gt;?&quot;&lt;/span&gt;" style="shape=display;whiteSpace=wrap;html=1;" vertex="1" parent="WIyWlLk6GJQsqaUBKTNV-1">
          <mxGeometry x="-89" y="1018" width="154" height="49" as="geometry" />
        </mxCell>
        <mxCell id="lA4oFmGLLZb_DYhbLBO6-3" style="edgeStyle=orthogonalEdgeStyle;rounded=0;orthogonalLoop=1;jettySize=auto;html=1;exitX=0.5;exitY=1;exitDx=0;exitDy=0;entryX=0.5;entryY=0;entryDx=0;entryDy=0;" edge="1" parent="WIyWlLk6GJQsqaUBKTNV-1" source="GoQJRWWMJ3RlQegqBFur-8" target="lA4oFmGLLZb_DYhbLBO6-2">
          <mxGeometry relative="1" as="geometry" />
        </mxCell>
        <mxCell id="GoQJRWWMJ3RlQegqBFur-8" value="idadeColega5" style="html=1;strokeWidth=2;shape=manualInput;whiteSpace=wrap;rounded=1;size=26;arcSize=0;" vertex="1" parent="WIyWlLk6GJQsqaUBKTNV-1">
          <mxGeometry x="-65" y="1338" width="130" height="60" as="geometry" />
        </mxCell>
        <mxCell id="GoQJRWWMJ3RlQegqBFur-9" style="edgeStyle=orthogonalEdgeStyle;rounded=0;orthogonalLoop=1;jettySize=auto;html=1;exitX=0;exitY=0;exitDx=71.25;exitDy=40;exitPerimeter=0;entryX=0.543;entryY=0.203;entryDx=0;entryDy=0;entryPerimeter=0;" edge="1" parent="WIyWlLk6GJQsqaUBKTNV-1">
          <mxGeometry relative="1" as="geometry">
            <mxPoint x="-0.75" y="1279" as="sourcePoint" />
            <mxPoint x="-1.4100000000000819" y="1351.18" as="targetPoint" />
            <Array as="points">
              <mxPoint x="-1" y="1316" />
            </Array>
          </mxGeometry>
        </mxCell>
        <mxCell id="GoQJRWWMJ3RlQegqBFur-10" style="edgeStyle=orthogonalEdgeStyle;rounded=0;orthogonalLoop=1;jettySize=auto;html=1;exitX=0.5;exitY=1;exitDx=0;exitDy=0;entryX=0.5;entryY=-0.015;entryDx=0;entryDy=0;entryPerimeter=0;" edge="1" parent="WIyWlLk6GJQsqaUBKTNV-1">
          <mxGeometry relative="1" as="geometry">
            <mxPoint y="1178" as="sourcePoint" />
            <mxPoint y="1237.4" as="targetPoint" />
          </mxGeometry>
        </mxCell>
        <mxCell id="GoQJRWWMJ3RlQegqBFur-11" value="&quot;Qual a idade do colega 5&lt;span style=&quot;background-color: initial;&quot;&gt;?&quot;&lt;/span&gt;" style="shape=display;whiteSpace=wrap;html=1;" vertex="1" parent="WIyWlLk6GJQsqaUBKTNV-1">
          <mxGeometry x="-88" y="1238" width="154" height="49" as="geometry" />
        </mxCell>
        <mxCell id="lA4oFmGLLZb_DYhbLBO6-2" value="somaDasIdades = soma de todas as idades informadas&amp;nbsp;" style="rounded=0;whiteSpace=wrap;html=1;" vertex="1" parent="WIyWlLk6GJQsqaUBKTNV-1">
          <mxGeometry x="-99.5" y="1460" width="199" height="70" as="geometry" />
        </mxCell>
        <mxCell id="GoQJRWWMJ3RlQegqBFur-18" style="edgeStyle=orthogonalEdgeStyle;rounded=0;orthogonalLoop=1;jettySize=auto;html=1;exitX=1;exitY=0.5;exitDx=0;exitDy=0;entryX=0;entryY=0.5;entryDx=0;entryDy=0;" edge="1" parent="WIyWlLk6GJQsqaUBKTNV-1" source="GoQJRWWMJ3RlQegqBFur-12" target="lA4oFmGLLZb_DYhbLBO6-4">
          <mxGeometry relative="1" as="geometry" />
        </mxCell>
        <mxCell id="GoQJRWWMJ3RlQegqBFur-12" value="Soma &amp;gt;= 108" style="rhombus;whiteSpace=wrap;html=1;" vertex="1" parent="WIyWlLk6GJQsqaUBKTNV-1">
          <mxGeometry x="-64" y="1740" width="129" height="100" as="geometry" />
        </mxCell>
        <mxCell id="GoQJRWWMJ3RlQegqBFur-17" style="edgeStyle=orthogonalEdgeStyle;rounded=0;orthogonalLoop=1;jettySize=auto;html=1;exitX=0;exitY=0;exitDx=96.25;exitDy=70;exitPerimeter=0;entryX=0.5;entryY=0;entryDx=0;entryDy=0;" edge="1" parent="WIyWlLk6GJQsqaUBKTNV-1" source="GoQJRWWMJ3RlQegqBFur-13" target="GoQJRWWMJ3RlQegqBFur-12">
          <mxGeometry relative="1" as="geometry" />
        </mxCell>
        <mxCell id="GoQJRWWMJ3RlQegqBFur-13" value="Soma de todas as idades" style="shape=display;whiteSpace=wrap;html=1;" vertex="1" parent="WIyWlLk6GJQsqaUBKTNV-1">
          <mxGeometry x="-96" y="1600" width="182" height="70" as="geometry" />
        </mxCell>
        <mxCell id="GoQJRWWMJ3RlQegqBFur-14" style="edgeStyle=orthogonalEdgeStyle;rounded=0;orthogonalLoop=1;jettySize=auto;html=1;exitX=0;exitY=0;exitDx=71.25;exitDy=40;exitPerimeter=0;entryX=0.543;entryY=0.203;entryDx=0;entryDy=0;entryPerimeter=0;" edge="1" parent="WIyWlLk6GJQsqaUBKTNV-1">
          <mxGeometry relative="1" as="geometry">
            <mxPoint x="1.25" y="1530" as="sourcePoint" />
            <mxPoint x="0.5899999999999181" y="1602.18" as="targetPoint" />
            <Array as="points">
              <mxPoint x="1" y="1571" />
              <mxPoint x="1" y="1571" />
            </Array>
          </mxGeometry>
        </mxCell>
        <mxCell id="GoQJRWWMJ3RlQegqBFur-20" value="" style="edgeStyle=orthogonalEdgeStyle;rounded=0;orthogonalLoop=1;jettySize=auto;html=1;" edge="1" parent="WIyWlLk6GJQsqaUBKTNV-1" source="lA4oFmGLLZb_DYhbLBO6-4" target="lA4oFmGLLZb_DYhbLBO6-10">
          <mxGeometry relative="1" as="geometry" />
        </mxCell>
        <mxCell id="GoQJRWWMJ3RlQegqBFur-21" value="" style="edgeStyle=orthogonalEdgeStyle;rounded=0;orthogonalLoop=1;jettySize=auto;html=1;" edge="1" parent="WIyWlLk6GJQsqaUBKTNV-1" source="lA4oFmGLLZb_DYhbLBO6-4" target="lA4oFmGLLZb_DYhbLBO6-9">
          <mxGeometry relative="1" as="geometry" />
        </mxCell>
        <mxCell id="lA4oFmGLLZb_DYhbLBO6-4" value="IdadeColega1,2,3,4,5&lt;br&gt;&amp;nbsp;e minhaIdade&lt;br&gt;&amp;gt;=18" style="rhombus;whiteSpace=wrap;html=1;" vertex="1" parent="WIyWlLk6GJQsqaUBKTNV-1">
          <mxGeometry x="213.5" y="1725" width="176.5" height="130" as="geometry" />
        </mxCell>
        <mxCell id="yFmaRNcrV0tXOOG5fGbp-0" style="edgeStyle=orthogonalEdgeStyle;rounded=0;orthogonalLoop=1;jettySize=auto;html=1;entryX=0.5;entryY=1;entryDx=0;entryDy=0;" edge="1" parent="WIyWlLk6GJQsqaUBKTNV-1" source="lA4oFmGLLZb_DYhbLBO6-9" target="lA4oFmGLLZb_DYhbLBO6-22">
          <mxGeometry relative="1" as="geometry" />
        </mxCell>
        <mxCell id="lA4oFmGLLZb_DYhbLBO6-9" value="&quot;NÃ£o podemos ir para o bar.&quot;" style="shape=display;whiteSpace=wrap;html=1;" vertex="1" parent="WIyWlLk6GJQsqaUBKTNV-1">
          <mxGeometry x="213" y="1910" width="177" height="60" as="geometry" />
        </mxCell>
        <mxCell id="lA4oFmGLLZb_DYhbLBO6-25" style="edgeStyle=orthogonalEdgeStyle;rounded=0;orthogonalLoop=1;jettySize=auto;html=1;entryX=0;entryY=0.5;entryDx=0;entryDy=0;" edge="1" parent="WIyWlLk6GJQsqaUBKTNV-1" source="lA4oFmGLLZb_DYhbLBO6-10" target="lA4oFmGLLZb_DYhbLBO6-22">
          <mxGeometry relative="1" as="geometry" />
        </mxCell>
        <mxCell id="lA4oFmGLLZb_DYhbLBO6-10" value="&quot;Podemos ir para o bar.&quot;" style="shape=display;whiteSpace=wrap;html=1;" vertex="1" parent="WIyWlLk6GJQsqaUBKTNV-1">
          <mxGeometry x="480" y="1760" width="177" height="60" as="geometry" />
        </mxCell>
        <mxCell id="lA4oFmGLLZb_DYhbLBO6-13" value="Sim" style="text;html=1;align=center;verticalAlign=middle;whiteSpace=wrap;rounded=0;" vertex="1" parent="WIyWlLk6GJQsqaUBKTNV-1">
          <mxGeometry x="66" y="1760" width="60" height="30" as="geometry" />
        </mxCell>
        <mxCell id="lA4oFmGLLZb_DYhbLBO6-16" value="Sim" style="text;html=1;align=center;verticalAlign=middle;whiteSpace=wrap;rounded=0;" vertex="1" parent="WIyWlLk6GJQsqaUBKTNV-1">
          <mxGeometry x="392" y="1754" width="60" height="30" as="geometry" />
        </mxCell>
        <mxCell id="lA4oFmGLLZb_DYhbLBO6-17" value="NÃ£o" style="text;html=1;align=center;verticalAlign=middle;whiteSpace=wrap;rounded=0;" vertex="1" parent="WIyWlLk6GJQsqaUBKTNV-1">
          <mxGeometry x="240" y="1860" width="60" height="30" as="geometry" />
        </mxCell>
        <mxCell id="lA4oFmGLLZb_DYhbLBO6-22" value="Fim do algoritmo&lt;span style=&quot;color: rgba(0, 0, 0, 0); font-family: monospace; font-size: 0px; text-align: start; text-wrap: nowrap;&quot;&gt;%3CmxGraphModel%3E%3Croot%3E%3CmxCell%20id%3D%220%22%2F%3E%3CmxCell%20id%3D%221%22%20parent%3D%220%22%2F%3E%3CmxCell%20id%3D%222%22%20value%3D%22%22%20style%3D%22rounded%3D0%3BwhiteSpace%3Dwrap%3Bhtml%3D1%3B%22%20vertex%3D%221%22%20parent%3D%221%22%3E%3CmxGeometry%20x%3D%22-120%22%20y%3D%22140%22%20width%3D%22130%22%20height%3D%2240%22%20as%3D%22geometry%22%2F%3E%3C%2FmxCell%3E%3C%2Froot%3E%3C%2FmxGraphModel%3E&lt;/span&gt;" style="rounded=1;whiteSpace=wrap;html=1;" vertex="1" parent="WIyWlLk6GJQsqaUBKTNV-1">
          <mxGeometry x="730" y="1770" width="130" height="40" as="geometry" />
        </mxCell>
        <mxCell id="GoQJRWWMJ3RlQegqBFur-23" value="NÃ£o" style="text;html=1;align=center;verticalAlign=middle;whiteSpace=wrap;rounded=0;" vertex="1" parent="WIyWlLk6GJQsqaUBKTNV-1">
          <mxGeometry x="-66" y="1840" width="60" height="30" as="geometry" />
        </mxCell>
        <mxCell id="GoQJRWWMJ3RlQegqBFur-28" style="edgeStyle=orthogonalEdgeStyle;rounded=0;orthogonalLoop=1;jettySize=auto;html=1;exitX=0.5;exitY=1;exitDx=0;exitDy=0;entryX=0;entryY=0.5;entryDx=0;entryDy=0;entryPerimeter=0;" edge="1" parent="WIyWlLk6GJQsqaUBKTNV-1" source="GoQJRWWMJ3RlQegqBFur-12" target="lA4oFmGLLZb_DYhbLBO6-9">
          <mxGeometry relative="1" as="geometry" />
        </mxCell>
      </root>
    </mxGraphModel>
  </diagram>
</mxfile>
